<svg xmlns="http://www.w3.org/2000/svg" width="63.046" height="55.136" viewBox="0 0 63.046 55.136"><defs><style>.a{fill:#fff;}</style></defs><path class="a" d="M428.873,6486.128l5.253-9.189,5.251,9.189Zm-13.135,0,5.251-9.189,5.255,9.189Zm-13.138,0,5.255-9.189,5.253,9.189Zm-26.27,0,5.251-9.189,5.255,9.189Zm45.972-9.956H432.81l-5.253,9.186Zm-13.135,0h10.507l-5.255,9.186Zm-26.271,0H393.4l-5.253,9.186Zm39.406-1.53,5.255-9.191,5.253,9.191Zm-39.406,0,5.255-9.191,5.253,9.191Zm32.841-9.956h10.506l-5.255,9.188Zm-26.273,0h10.506l-5.253,9.188Zm26.273-1.533,5.251-9.187,5.255,9.188Zm-26.273,0,5.253-9.187,5.253,9.188Zm19.7-9.952h10.507l-5.255,9.189Zm-13.136,0h10.509l-5.255,9.189Zm13.136-1.53,5.253-9.19,5.255,9.19Zm-13.136,0,5.255-9.19,5.255,9.19Zm6.568-9.958h10.507l-5.253,9.192Zm0-1.53,5.255-9.191,5.253,9.191Z" transform="translate(-376.33 -6430.993)"/></svg>